<svg id="Capa_1" enable-background="new 0 0 512 512" height="512" viewBox="0 0 512 512" width="512" xmlns="http://www.w3.org/2000/svg"><g><path d="m116.551 96.631c.045 21.863 15.005 37.328 16.71 39.02 2.925 2.901 6.744 4.35 10.562 4.35 3.859 0 7.719-1.48 10.651-4.437 5.833-5.882 5.794-15.379-.088-21.213-.078-.078-7.816-8.339-7.835-17.781-.011-5.427 2.566-10.648 7.879-15.962 10.931-10.931 16.694-23.808 16.667-37.237-.045-21.863-15.005-37.328-16.71-39.02-5.882-5.833-15.379-5.794-21.213.088-5.833 5.882-5.794 15.379.088 21.213.078.078 7.816 8.339 7.835 17.781.011 5.427-2.566 10.648-7.879 15.962-10.932 10.93-16.695 23.806-16.667 37.236z"/><path d="m199.051 96.631c.045 21.863 15.005 37.328 16.71 39.02 2.925 2.901 6.744 4.35 10.562 4.35 3.859 0 7.719-1.48 10.651-4.437 5.833-5.882 5.794-15.379-.088-21.213-.078-.078-7.816-8.339-7.835-17.781-.011-5.427 2.566-10.648 7.879-15.962 10.931-10.931 16.694-23.808 16.667-37.237-.045-21.863-15.005-37.328-16.71-39.02-5.881-5.833-15.379-5.794-21.213.088-5.833 5.882-5.794 15.379.088 21.213.078.078 7.816 8.339 7.835 17.781.011 5.427-2.566 10.648-7.879 15.962-10.932 10.93-16.695 23.806-16.667 37.236z"/><path d="m281.551 96.631c.045 21.863 15.005 37.328 16.71 39.02 2.925 2.901 6.744 4.35 10.562 4.35 3.859 0 7.719-1.48 10.651-4.437 5.833-5.882 5.794-15.379-.088-21.213-.078-.078-7.816-8.339-7.835-17.781-.011-5.427 2.566-10.648 7.879-15.962 10.931-10.931 16.694-23.808 16.667-37.237-.045-21.863-15.005-37.328-16.71-39.02-5.882-5.833-15.379-5.794-21.213.088-5.833 5.882-5.794 15.379.088 21.213.078.078 7.816 8.339 7.835 17.781.011 5.427-2.566 10.648-7.879 15.962-10.932 10.93-16.695 23.806-16.667 37.236z"/><path d="m70.463 468.421c8.694 26.028 33.061 43.579 60.502 43.579h190.717c27.481 0 51.795-17.513 60.503-43.58 2.739-8.199-3.363-16.67-12.008-16.67h-287.707c-8.644 0-14.746 8.471-12.007 16.671z"/><path d="m373.864 361.375h23.21c24.882 0 45.125-20.243 45.125-45.125s-20.243-45.125-45.125-45.125h-100.828c2.404-2.183 4.687-4.512 6.803-7.004 24.875-29.299 24.298-77.508 24.261-79.545-.078-4.309-2.004-8.375-5.29-11.164-3.286-2.79-7.613-4.031-11.875-3.408-2.017.294-49.68 7.546-74.556 36.846-3.595 4.235-6.656 8.866-9.267 13.695-2.61-4.829-5.671-9.46-9.267-13.695-24.875-29.3-72.539-36.552-74.556-36.846-4.265-.621-8.59.619-11.875 3.408s-5.212 6.855-5.29 11.164c-.037 2.038-.614 50.246 24.261 79.545 2.116 2.492 4.4 4.821 6.803 7.004h-57.912c-6.357 0-12.023 4.007-14.143 10-5.694 16.11-8.582 32.995-8.582 50.187 0 33.913 11.274 65.239 30.266 90.437h240.594c13.227-17.55 22.705-38.075 27.243-60.374zm38.335-45.125c0 8.34-6.785 15.125-15.125 15.125h-20.188c0-.021.001-.042.001-.062 0-10.204-1.026-20.298-3.043-30.188h23.231c8.339 0 15.124 6.785 15.124 15.125z"/></g></svg>